<?xml version="1.0" encoding="utf-8"?>
<!-- Generator: Adobe Illustrator 26.4.1, SVG Export Plug-In . SVG Version: 6.00 Build 0)  -->
<svg version="1.1" id="Layer_1" xmlns="http://www.w3.org/2000/svg" xmlns:xlink="http://www.w3.org/1999/xlink" x="0px" y="0px"
	 viewBox="0 0 420 390.4" style="enable-background:new 0 0 420 390.4;" xml:space="preserve">
<style type="text/css">
	.st0{fill:#FFFFFF;}
	.st1{fill:#04659C;}
	.st2{fill:none;stroke:#000000;stroke-width:0.3;stroke-miterlimit:10;}
	.st3{fill:#706E71;}
	.st4{fill:#EF491E;}
	.st5{fill:#88CE2C;}
	.st6{fill:#00B7EF;}
	.st7{fill:#F7B30B;}
	.st8{fill:#424242;}
	.st9{fill:#1E1D1F;}
	.st10{fill:#006CAF;}
	.st11{fill:none;stroke:#6B6B6B;stroke-width:0.5;stroke-miterlimit:10.0002;}
	.st12{fill:#6B6B6C;}
</style>
<g id="Layer_2_00000037656314769002571510000010091241264653493923_">
	<g id="Capa_2">
		<rect x="-9.5" y="-8.4" class="st0" width="436.3" height="405.8"/>
	</g>
</g>
<rect x="292.7" y="315.9" class="st1" width="98.2" height="26.1"/>
<line class="st2" x1="37.9" y1="161.8" x2="389.9" y2="161.8"/>
<line class="st2" x1="37.9" y1="202.2" x2="389.9" y2="202.2"/>
<path class="st3" d="M175.8,50.2v-2.3h-2.9v-3.6h-0.1l-2.7,0.8H170v2.8h-4.3v-1.5c0-0.6,0.1-1.1,0.5-1.6c0.3-0.4,0.8-0.5,1.3-0.5
	c0.4,0,0.9,0.1,1.3,0.3h0.1v-2.5l0,0c-0.5-0.1-1.1-0.2-1.6-0.2c-0.8,0-1.6,0.2-2.3,0.5c-0.6,0.4-1.2,0.9-1.6,1.5
	c-0.4,0.7-0.6,1.5-0.6,2.3v1.7h-2v2.3h2V60h2.9v-9.8h4.2v6.2c0,2.6,1.2,3.9,3.6,3.9c0.4,0,0.8,0,1.2-0.1c0.3-0.1,0.6-0.2,0.9-0.3
	l0,0v-2.3l-0.1,0.1l-0.6,0.3c-0.2,0.1-0.4,0.1-0.6,0.1c-0.4,0-0.9-0.1-1.2-0.4c-0.3-0.5-0.5-1-0.4-1.6v-5.7h3.1L175.8,50.2z
	 M154.5,57.9c-0.9,0.1-1.9-0.3-2.5-1c-0.6-0.8-1-1.9-0.9-2.9c-0.1-1.1,0.2-2.1,0.9-3c1.3-1.3,3.5-1.3,4.8,0l0,0c0.7,0.9,1,1.9,0.9,3
	c0.1,1.1-0.2,2.1-0.8,3C156.3,57.6,155.4,57.9,154.5,57.9 M154.6,47.6c-1.7-0.1-3.4,0.5-4.7,1.7c-1.2,1.3-1.8,3-1.7,4.7
	c-0.2,3.2,2.2,6,5.5,6.2l0,0c0.2,0,0.5,0,0.7,0c1.7,0.1,3.4-0.6,4.6-1.8c1.2-1.3,1.8-3,1.7-4.7c0.1-1.7-0.5-3.3-1.6-4.6
	C157.8,48.1,156.2,47.6,154.6,47.6 M143.6,47.6c-1.2-0.1-2.4,0.3-3.3,1c-0.9,0.6-1.3,1.6-1.3,2.7c0,0.5,0.1,1,0.3,1.5
	c0.2,0.4,0.5,0.8,0.9,1.1c0.5,0.4,1.1,0.7,1.7,1c0.7,0.3,1.1,0.5,1.5,0.7c0.2,0.1,0.4,0.3,0.6,0.5c0.1,0.2,0.2,0.5,0.2,0.7
	c0,0.8-0.6,1.2-1.9,1.2c-0.5,0-1.1-0.1-1.6-0.3c-0.6-0.2-1.1-0.5-1.6-0.8l-0.2-0.1v2.8l0,0c0.5,0.2,1,0.4,1.5,0.5s1.1,0.2,1.6,0.2
	c1.2,0.1,2.5-0.3,3.5-1c0.9-0.6,1.3-1.6,1.3-2.7c0-0.8-0.2-1.5-0.7-2.1c-0.7-0.7-1.5-1.2-2.4-1.5c-0.6-0.2-1.2-0.5-1.7-0.9
	c-0.2-0.2-0.3-0.6-0.3-0.9c0-0.3,0.1-0.7,0.4-0.9c0.4-0.2,0.8-0.3,1.2-0.3c0.5,0,1,0.1,1.5,0.2c0.5,0.1,0.9,0.3,1.3,0.6l0.1,0.1
	v-2.6l0,0c-0.4-0.2-0.9-0.3-1.3-0.4C144.5,47.7,144.1,47.6,143.6,47.6 M131.4,57.9c-0.9,0.1-1.8-0.3-2.4-1c-0.6-0.8-1-1.9-0.9-2.9
	c-0.1-1.1,0.2-2.1,0.9-3c1.3-1.3,3.5-1.3,4.8,0l0,0c0.7,0.9,1,1.9,0.9,3c0.1,1.1-0.2,2.1-0.8,3C133.2,57.6,132.3,57.9,131.4,57.9
	 M131.6,47.6c-1.7-0.1-3.4,0.5-4.7,1.7c-1.2,1.3-1.8,3-1.7,4.7c-0.2,3.2,2.2,6,5.5,6.2l0,0c0.2,0,0.5,0,0.7,0
	c1.7,0.1,3.4-0.6,4.6-1.8c1.2-1.3,1.8-3,1.7-4.7c0.1-1.7-0.5-3.3-1.6-4.6C134.8,48.1,133.2,47.6,131.6,47.6 M120.8,50v-2.1h-2.9V60
	h2.8v-6.2c0-0.9,0.2-1.8,0.7-2.6c0.4-0.6,1.1-1,1.8-1c0.3,0,0.6,0,0.9,0.1c0.2,0.1,0.5,0.2,0.7,0.3l0.1,0.2v-2.9l0,0
	c-0.4-0.1-0.7-0.2-1.1-0.2c-0.7,0-1.4,0.2-1.9,0.7C121.4,48.8,121,49.4,120.8,50z M112.8,47.6c-1.2,0-2.4,0.3-3.5,0.8
	c-1,0.5-1.8,1.3-2.3,2.3c-0.5,1.1-0.8,2.3-0.8,3.5c0,1.1,0.3,2.1,0.8,3.1c0.5,0.9,1.2,1.6,2.1,2.2c1,0.5,2,0.8,3.1,0.8
	c1.2,0,2.4-0.2,3.4-0.8l0,0v-2.6l-0.1,0.1c-0.4,0.3-0.9,0.5-1.4,0.7c-0.4,0.2-0.9,0.3-1.4,0.3c-1,0.1-2-0.3-2.7-1
	c-0.7-0.8-1.1-1.8-1-2.9c-0.1-1.1,0.3-2.2,1-3c0.7-0.7,1.7-1.1,2.7-1.1s1.9,0.3,2.7,0.9l0.1,0.1v-2.7l0,0c-0.4-0.2-0.8-0.3-1.3-0.4
	C113.8,47.7,113.3,47.6,112.8,47.6 M104.4,47.9h-2.8V60h2.8V47.9z M103,42.8c-0.9,0-1.7,0.8-1.7,1.7s0.8,1.7,1.7,1.7
	c0.9,0,1.7-0.8,1.7-1.7l0,0l0,0c0-0.4-0.2-0.9-0.5-1.2C103.9,42.9,103.5,42.8,103,42.8 M95.9,47v13h2.9V43.1h-4l-5.1,12.5l-5-12.5
	h-4.2V60h2.7V47h0.1l5.2,13h2.1L95.9,47z"/>
<path class="st4" d="M57.3,50.9H43.9V37.4h13.4C57.3,37.4,57.3,50.9,57.3,50.9z"/>
<path class="st5" d="M72.1,50.9H58.7V37.4h13.4V50.9z"/>
<path class="st6" d="M57.3,65.7H43.9V52.3h13.4C57.3,52.3,57.3,65.7,57.3,65.7z"/>
<path class="st7" d="M72.1,65.7H58.7V52.3h13.4V65.7z"/>
<path class="st8" d="M48.8,101.6H46V84.8h2.9L48.8,101.6z"/>
<path class="st8" d="M63.4,101.6h-2.7v-6.8c0-2.2-0.8-3.4-2.4-3.4c-0.8,0-1.5,0.3-2.1,0.9c-0.5,0.7-0.8,1.5-0.8,2.3v6.8h-2.7v-12
	h2.7v2l0,0c0.8-1.4,2.3-2.3,3.9-2.3c1.1-0.1,2.3,0.4,3,1.3c0.7,1.1,1.1,2.4,1,3.7L63.4,101.6z"/>
<path class="st8" d="M68.1,87.1c-0.4,0-0.8-0.1-1.1-0.4c-0.6-0.6-0.6-1.5-0.1-2.1c0,0,0-0.1,0.1-0.1c0.3-0.3,0.7-0.4,1.1-0.4
	s0.9,0.2,1.2,0.4c0.6,0.6,0.6,1.5,0.1,2.1l-0.1,0.1C68.9,86.9,68.5,87.1,68.1,87.1z M69.4,101.6h-2.7v-12h2.7V101.6z"/>
<path class="st8" d="M81.6,101c-1,0.6-2.2,0.9-3.4,0.8c-1.6,0.1-3.2-0.5-4.3-1.7c-1.1-1.2-1.7-2.7-1.6-4.3c-0.1-1.8,0.6-3.5,1.8-4.7
	c1.3-1.2,3-1.9,4.7-1.8c1,0,2,0.2,2.9,0.6v2.5c-0.8-0.6-1.7-0.9-2.7-0.9c-1.1,0-2.1,0.4-2.8,1.2c-0.7,0.8-1.1,1.9-1.1,3
	c-0.1,1.1,0.3,2.1,1,2.9c0.7,0.7,1.7,1.1,2.8,1.1c1,0,2-0.4,2.8-1L81.6,101z"/>
<path class="st8" d="M85.6,87.1c-0.4,0-0.8-0.1-1.2-0.4c-0.6-0.6-0.6-1.6,0-2.2l0,0c0.3-0.3,0.7-0.4,1.2-0.4c0.4,0,0.9,0.2,1.2,0.4
	c0.6,0.6,0.6,1.5,0.1,2.1l-0.1,0.1C86.5,86.9,86.1,87.1,85.6,87.1z M87,101.6h-2.8v-12H87V101.6z"/>
<path class="st8" d="M99.7,101.6h-2.6v-1.9l0,0c-0.7,1.4-2.1,2.2-3.6,2.2c-1,0.1-2-0.3-2.8-1c-0.7-0.7-1-1.6-1-2.5
	c0-2.3,1.3-3.6,3.9-4l3.6-0.5c0-1.7-0.8-2.6-2.4-2.6c-1.4,0-2.8,0.5-3.9,1.5v-2.3c1.3-0.8,2.8-1.2,4.4-1.1c3,0,4.5,1.5,4.5,4.5
	L99.7,101.6z M97.1,95.7L94.6,96c-0.6,0-1.2,0.2-1.8,0.6c-0.4,0.4-0.7,0.9-0.6,1.5c0,0.5,0.2,0.9,0.6,1.2c0.4,0.3,0.9,0.5,1.5,0.5
	c0.8,0,1.5-0.3,2.1-0.9c0.5-0.6,0.8-1.4,0.8-2.2L97.1,95.7L97.1,95.7z"/>
<path class="st8" d="M110,92.2c-0.4-0.3-0.9-0.4-1.4-0.4c-0.8,0-1.6,0.4-2,1.1c-0.6,0.9-0.9,1.9-0.8,3v5.7H103v-12h2.7v2.5l0,0
	c0.2-0.8,0.6-1.5,1.2-2c0.5-0.5,1.2-0.7,1.8-0.7c0.4,0,0.8,0.1,1.1,0.2L110,92.2z"/>
<path class="st8" d="M117.8,101.2v-2.5c1,0.8,2.1,1.2,3.4,1.2c1.7,0,2.5-0.5,2.5-1.4c0-0.3-0.1-0.5-0.2-0.7
	c-0.2-0.2-0.3-0.4-0.6-0.5c-0.3-0.2-0.6-0.3-0.8-0.4l-1.1-0.4c-0.5-0.2-0.9-0.4-1.3-0.6s-0.7-0.4-1-0.7c-0.3-0.3-0.5-0.6-0.6-1
	s-0.2-0.8-0.2-1.2c0-0.5,0.1-1.1,0.4-1.5s0.7-0.8,1.1-1.1c0.5-0.3,1-0.5,1.6-0.7s1.2-0.2,1.8-0.2c1,0,2,0.2,3,0.5v2.4
	c-0.9-0.6-1.9-0.9-2.9-0.9c-0.3,0-0.6,0-0.9,0.1s-0.5,0.2-0.7,0.3c-0.2,0.1-0.3,0.3-0.5,0.4c-0.1,0.2-0.2,0.4-0.2,0.6
	s0.1,0.5,0.2,0.7s0.3,0.4,0.5,0.5c0.2,0.2,0.5,0.3,0.8,0.4s0.7,0.2,1,0.4c0.5,0.2,0.9,0.4,1.4,0.7c0.4,0.2,0.7,0.4,1,0.7
	c0.3,0.3,0.5,0.6,0.7,1s0.2,0.9,0.2,1.3c0,0.6-0.1,1.1-0.4,1.6s-0.7,0.8-1.1,1.1c-0.5,0.3-1,0.5-1.6,0.7c-0.6,0.1-1.3,0.2-1.9,0.2
	C120,101.9,118.8,101.7,117.8,101.2z"/>
<path class="st8" d="M139,96.3h-8.2c0,1,0.3,1.9,1,2.6c0.7,0.6,1.7,1,2.7,0.9c1.3,0,2.5-0.4,3.5-1.2v2.2c-1.3,0.7-2.8,1.1-4.3,1
	c-1.6,0.1-3.1-0.5-4.2-1.6c-1.1-1.3-1.6-2.9-1.5-4.6c-0.1-1.7,0.5-3.3,1.7-4.6c1.1-1.2,2.6-1.8,4.1-1.8c1.4-0.1,2.8,0.5,3.8,1.6
	c1,1.3,1.4,2.8,1.4,4.4V96.3z M136.4,94.4c0.1-0.8-0.2-1.6-0.7-2.3c-0.5-0.5-1.2-0.8-1.9-0.8c-0.8,0-1.5,0.3-2,0.8
	c-0.6,0.6-0.9,1.4-1,2.2h5.6L136.4,94.4L136.4,94.4z"/>
<path class="st8" d="M140.9,101.2v-2.5c1,0.8,2.1,1.2,3.4,1.2c1.6,0,2.5-0.5,2.5-1.4c0-0.3-0.1-0.5-0.2-0.7
	c-0.2-0.2-0.3-0.4-0.6-0.5c-0.3-0.2-0.5-0.3-0.8-0.4l-1.1-0.4c-0.5-0.2-0.9-0.4-1.3-0.6c-0.4-0.2-0.7-0.4-1-0.7
	c-0.3-0.3-0.5-0.6-0.6-1S141,93.4,141,93c0-0.5,0.1-1.1,0.4-1.5c0.3-0.4,0.7-0.8,1.1-1.1c0.5-0.3,1-0.5,1.6-0.7s1.2-0.2,1.8-0.2
	c1,0,2,0.2,3,0.5v2.4c-0.9-0.6-1.9-0.9-2.9-0.9c-0.3,0-0.6,0-0.9,0.1c-0.3,0.1-0.5,0.2-0.7,0.3c-0.2,0.1-0.3,0.3-0.5,0.4
	c-0.1,0.2-0.2,0.4-0.2,0.6s0,0.5,0.2,0.7c0.1,0.2,0.3,0.4,0.5,0.5c0.2,0.2,0.5,0.3,0.8,0.4s0.6,0.2,1,0.4c0.5,0.2,0.9,0.4,1.4,0.7
	c0.4,0.2,0.7,0.4,1.1,0.7c0.3,0.3,0.5,0.6,0.7,1s0.3,0.9,0.2,1.3c0,0.6-0.1,1.1-0.4,1.6c-0.3,0.5-0.7,0.8-1.1,1.1
	c-0.5,0.3-1,0.5-1.6,0.7c-0.6,0.1-1.3,0.2-1.9,0.2C143.1,101.9,141.9,101.7,140.9,101.2z"/>
<path class="st8" d="M153.3,87.1c-0.4,0-0.8-0.1-1.1-0.4c-0.6-0.6-0.6-1.5-0.1-2.1c0,0,0-0.1,0.1-0.1c0.3-0.3,0.7-0.5,1.1-0.4
	c0.4,0,0.9,0.2,1.2,0.4c0.6,0.6,0.6,1.5,0.1,2.1l-0.1,0.1C154.2,86.9,153.8,87.1,153.3,87.1z M154.7,101.6H152v-12h2.7V101.6z"/>
<path class="st8" d="M163.6,101.9c-1.6,0.1-3.3-0.5-4.4-1.7c-1.1-1.2-1.7-2.8-1.7-4.5c-0.3-3.3,2.1-6.1,5.4-6.4c0.3,0,0.7,0,1,0
	c1.6-0.1,3.2,0.5,4.4,1.7c2.1,2.7,2.1,6.5-0.1,9.2C166.9,101.4,165.2,102,163.6,101.9z M163.7,91.5c-1,0-1.9,0.4-2.5,1.1
	c-0.7,0.9-1,2-0.9,3.1c-0.1,1.1,0.3,2.1,0.9,3c0.6,0.7,1.6,1.1,2.5,1.1c0.9,0.1,1.9-0.3,2.5-1.1c0.6-0.9,0.9-1.9,0.9-3
	c0.1-1.1-0.2-2.2-0.9-3.1C165.6,91.9,164.6,91.4,163.7,91.5z M167.2,83.5l-3.4,3.8h-2l2.8-3.8H167.2z"/>
<path class="st8" d="M183.3,101.6h-2.7v-6.8c0-2.2-0.8-3.4-2.4-3.4c-0.8,0-1.5,0.3-2,0.9c-0.6,0.7-0.8,1.5-0.8,2.3v6.8h-2.7v-12h2.7
	v2l0,0c0.8-1.4,2.3-2.3,3.9-2.3c1.1-0.1,2.3,0.4,3,1.3c0.7,1.1,1.1,2.4,1,3.7V101.6z"/>
<path class="st0" d="M315.8,331.8V331c0.6,0.4,1.4,0.7,2.1,0.7c0.6,0,1.2-0.1,1.8-0.5c0.4-0.3,0.6-0.8,0.6-1.3
	c0-0.4-0.1-0.9-0.4-1.2c-0.5-0.5-1.1-0.9-1.7-1.2c-0.7-0.4-1.4-0.9-1.9-1.5c-0.3-0.4-0.4-0.9-0.4-1.4c0-0.7,0.3-1.3,0.8-1.8
	c0.6-0.5,1.4-0.8,2.2-0.7c0.6,0,1.2,0.1,1.8,0.3v0.7c-0.6-0.3-1.2-0.4-1.8-0.4c-0.6,0-1.1,0.1-1.6,0.5c-0.4,0.3-0.6,0.8-0.6,1.3
	c0,0.4,0.1,0.9,0.4,1.2c0.5,0.5,1.1,0.9,1.7,1.2c0.7,0.3,1.3,0.8,1.8,1.4c0.3,0.4,0.5,0.9,0.5,1.4c0,0.7-0.3,1.4-0.8,1.8
	c-0.6,0.5-1.4,0.8-2.2,0.7c-0.4,0-0.8-0.1-1.2-0.1C316.5,332.1,316.1,332,315.8,331.8z"/>
<path class="st0" d="M323.3,323.4c-0.3,0-0.5-0.2-0.5-0.5c0-0.1,0.1-0.3,0.2-0.4c0.2-0.2,0.5-0.2,0.7,0c0.1,0.1,0.2,0.2,0.2,0.4
	c0,0.1-0.1,0.3-0.2,0.4C323.5,323.3,323.4,323.4,323.3,323.4z M323,332.2v-7h0.6v7H323z"/>
<path class="st0" d="M331.4,331.6c0.1,1-0.2,2.1-0.9,2.9c-0.7,0.7-1.7,1-2.7,0.9c-0.7,0-1.4-0.2-2.1-0.5v-0.7
	c0.6,0.4,1.4,0.6,2.1,0.6c1.9,0,2.9-1,2.9-3.1v-0.9l0,0c-0.8,1.4-2.6,1.8-4,1c-0.2-0.1-0.5-0.3-0.6-0.5c-0.6-0.7-0.9-1.7-0.8-2.6
	c0-1,0.3-2,0.9-2.7s1.4-1.1,2.3-1.1c0.9-0.1,1.8,0.4,2.2,1.3l0,0v-1.1h0.6L331.4,331.6z M330.8,327.9c0-0.6-0.2-1.2-0.6-1.6
	s-1-0.7-1.6-0.7c-0.7,0-1.4,0.3-1.9,0.9c-0.5,0.7-0.7,1.5-0.7,2.3s0.2,1.6,0.6,2.2c0.4,0.5,1,0.8,1.7,0.8s1.3-0.2,1.8-0.7
	c0.4-0.5,0.7-1.1,0.7-1.8V327.9z"/>
<path class="st0" d="M338.3,332.2v-1.3l0,0c-0.4,0.9-1.3,1.5-2.3,1.4c-1.6,0-2.5-1-2.5-3.1v-4h0.6v3.9c-0.1,0.7,0.1,1.4,0.5,2.1
	c0.4,0.4,0.9,0.7,1.5,0.6c0.6,0,1.2-0.3,1.6-0.7c0.4-0.5,0.6-1.2,0.6-1.9v-4h0.6v7H338.3z"/>
<path class="st0" d="M341.5,323.4c-0.3,0-0.5-0.2-0.5-0.5c0-0.1,0.1-0.3,0.2-0.4s0.2-0.1,0.4-0.1c0.1,0,0.3,0,0.4,0.1
	s0.2,0.2,0.2,0.4c0,0.1-0.1,0.3-0.2,0.4C341.7,323.3,341.6,323.4,341.5,323.4z M341.2,332.2v-7h0.6v7H341.2z"/>
<path class="st0" d="M344.2,328.7c0,0.8,0.2,1.6,0.7,2.3c0.5,0.5,1.1,0.8,1.8,0.8c0.8,0,1.7-0.3,2.3-0.9v0.7
	c-0.7,0.5-1.6,0.8-2.4,0.8s-1.7-0.3-2.2-1c-0.6-0.8-0.9-1.8-0.8-2.7c0-0.9,0.3-1.9,0.9-2.6s1.4-1.1,2.3-1c0.8,0,1.5,0.3,2,0.9
	c0.5,0.7,0.8,1.6,0.7,2.5v0.3L344.2,328.7z M348.7,328.1c0-0.7-0.2-1.3-0.6-1.9c-0.4-0.4-0.9-0.7-1.5-0.7s-1.2,0.2-1.6,0.7
	c-0.5,0.5-0.8,1.2-0.8,1.9H348.7z"/>
<path class="st0" d="M355.9,332.2v-4.1c0-1.7-0.6-2.5-1.8-2.5c-0.6,0-1.2,0.3-1.7,0.7c-0.4,0.5-0.7,1.2-0.6,1.8v4h-0.6v-7h0.6v1.3
	l0,0c0.4-0.9,1.4-1.5,2.4-1.4c0.7,0,1.3,0.2,1.7,0.8c0.4,0.6,0.6,1.4,0.6,2.1v4.3L355.9,332.2z"/>
<path class="st0" d="M361.4,332.1c-0.3,0.1-0.6,0.2-0.9,0.2c-1,0-1.5-0.6-1.5-1.9v-4.7h-1.3v-0.6h1.3v-1.8l0.3-0.1l0.3-0.1v2h1.9
	v0.6h-1.9v4.6c0,0.4,0.1,0.7,0.2,1c0.2,0.2,0.5,0.3,0.8,0.3s0.6-0.1,0.9-0.2L361.4,332.1z"/>
<path class="st0" d="M362.9,328.7c0,0.8,0.2,1.6,0.7,2.3c0.4,0.5,1.1,0.8,1.8,0.8c0.8,0,1.7-0.3,2.3-0.9v0.7
	c-0.7,0.5-1.6,0.8-2.4,0.8s-1.7-0.3-2.2-1c-0.6-0.8-0.9-1.8-0.8-2.7c0-0.9,0.3-1.9,0.9-2.6s1.4-1.1,2.3-1c0.8,0,1.5,0.3,2,0.9
	c0.5,0.7,0.7,1.6,0.7,2.5v0.3L362.9,328.7z M367.4,328.1c0-0.7-0.2-1.3-0.6-1.9c-0.4-0.4-0.9-0.7-1.5-0.7s-1.2,0.2-1.6,0.7
	c-0.5,0.5-0.8,1.2-0.8,1.9H367.4z"/>
<path class="st9" d="M41.2,236.8c0,0.1,0.1,0.3,0.1,0.4c0,0.2,0,0.3,0,0.5s0,0.3-0.1,0.5c0,0.1-0.1,0.3-0.2,0.4
	c-0.1,0.1-0.2,0.3-0.3,0.4l-0.4,0.4c-0.1,0.1-0.2,0.2-0.4,0.4c-0.1,0.1-0.2,0.3-0.3,0.4c-0.1,0.1-0.2,0.3-0.2,0.5
	c-0.1,0.2-0.1,0.4-0.1,0.6c0,0.2,0,0.4,0.1,0.6c0.1,0.2,0.2,0.3,0.3,0.4c0.1,0.1,0.3,0.2,0.5,0.3s0.4,0.1,0.6,0.1
	c0.3,0,0.7-0.1,1-0.2c0.3-0.1,0.6-0.3,0.9-0.5v0.6c-0.3,0.2-0.6,0.4-0.9,0.5c-0.3,0.1-0.7,0.2-1,0.1c-0.3,0-0.5,0-0.8-0.1
	c-0.2-0.1-0.4-0.2-0.6-0.4c-0.2-0.2-0.3-0.4-0.4-0.6c-0.1-0.2-0.2-0.5-0.2-0.8c0-0.2,0-0.4,0.1-0.6c0.1-0.2,0.1-0.3,0.2-0.5
	c0.1-0.2,0.2-0.3,0.3-0.4l0.4-0.4l0.5-0.5c0.1-0.1,0.2-0.2,0.3-0.4c0.1-0.1,0.1-0.2,0.2-0.3c0-0.1,0-0.2,0-0.4s0-0.3,0-0.5
	c0-0.1-0.1-0.3-0.1-0.4L41.2,236.8z M41,234.4c0.3,0,0.5,0.2,0.5,0.5l0,0c0,0.1,0,0.2-0.1,0.3s-0.2,0.1-0.3,0.1s-0.3,0-0.3-0.1
	c-0.1-0.1-0.1-0.2-0.1-0.3s0-0.3,0.1-0.3C40.7,234.4,40.9,234.4,41,234.4L41,234.4z"/>
<path class="st9" d="M50.1,240.5l-5-6.8c-0.1-0.1-0.2-0.3-0.3-0.4l-0.1-0.1l0,0c0,0.1,0,0.2,0,0.4v6.9h-0.6v-8.4h0.5l5,6.7
	c0.1,0.1,0.2,0.3,0.4,0.5l0,0c0-0.3,0-0.5,0-0.7V232h0.6v8.4h-0.5C50.1,240.4,50.1,240.5,50.1,240.5z"/>
<path class="st9" d="M55,240.6c-0.8,0-1.6-0.3-2.1-0.9c-1-1.4-1-3.2,0-4.6c0.5-0.6,1.3-0.9,2.1-0.8c0.8,0,1.5,0.3,2,0.8
	c1,1.4,1,3.2,0,4.6C56.5,240.3,55.8,240.7,55,240.6z M55,234.8c-0.6,0-1.3,0.2-1.7,0.7c-0.5,0.6-0.7,1.3-0.6,2
	c0,0.7,0.2,1.4,0.6,1.9c0.4,0.5,1,0.7,1.7,0.7c0.6,0,1.3-0.2,1.7-0.7c0.8-1.2,0.8-2.7,0-3.9C56.2,235.1,55.6,234.8,55,234.8z"/>
<path class="st9" d="M64.9,240.4c-0.2,0.1-0.5,0.2-0.8,0.2c-0.9,0-1.3-0.5-1.3-1.6v-4h-1.1v-0.5h1.1V233l0.3-0.1l0.3-0.1v1.7H65v0.5
	h-1.6v4c0,0.3,0,0.6,0.2,0.9c0.2,0.2,0.4,0.3,0.7,0.3s0.5-0.1,0.7-0.2L64.9,240.4L64.9,240.4z"/>
<path class="st9" d="M66.4,233c-0.3,0-0.5-0.2-0.4-0.5c0-0.1,0-0.2,0.1-0.3s0.2-0.1,0.3-0.1c0.1,0,0.2,0,0.3,0.1
	c0.1,0.1,0.1,0.2,0.1,0.3s0,0.2-0.1,0.3C66.6,232.9,66.5,233,66.4,233z M66.1,240.5v-6h0.5v6H66.1z"/>
<path class="st9" d="M68.7,237.5c0,0.7,0.2,1.4,0.6,1.9s1,0.7,1.6,0.7c0.7,0,1.4-0.3,2-0.7v0.6c-0.6,0.4-1.3,0.7-2.1,0.7
	c-0.7,0-1.4-0.3-1.9-0.8c-0.5-0.7-0.8-1.5-0.7-2.4c0-0.8,0.2-1.6,0.8-2.2c0.5-0.6,1.2-0.9,1.9-0.9c0.7,0,1.3,0.3,1.7,0.8
	c0.4,0.6,0.6,1.4,0.6,2.1v0.2L68.7,237.5z M72.6,237c0-0.6-0.2-1.1-0.5-1.6c-0.3-0.4-0.8-0.6-1.3-0.6s-1,0.2-1.4,0.6
	c-0.4,0.4-0.6,1-0.7,1.6H72.6z"/>
<path class="st9" d="M78.7,240.5V237c0-1.4-0.5-2.2-1.6-2.2c-0.5,0-1.1,0.2-1.4,0.6c-0.4,0.4-0.6,1-0.6,1.6v3.4h-0.5v-6h0.5v1.1l0,0
	c0.4-0.8,1.2-1.3,2.1-1.2c0.6,0,1.1,0.2,1.5,0.6c0.4,0.5,0.6,1.2,0.5,1.9v3.6L78.7,240.5z"/>
<path class="st9" d="M81.2,237.5c0,0.7,0.2,1.4,0.6,1.9s1,0.7,1.6,0.7c0.7,0,1.4-0.3,2-0.7v0.6c-0.6,0.4-1.3,0.7-2.1,0.7
	c-0.7,0-1.4-0.3-1.9-0.8c-0.5-0.7-0.8-1.5-0.7-2.4c0-0.8,0.2-1.6,0.8-2.2c0.5-0.6,1.2-0.9,1.9-0.9c0.7,0,1.3,0.3,1.7,0.8
	c0.4,0.6,0.6,1.4,0.6,2.1v0.2L81.2,237.5z M85.1,237c0-0.6-0.2-1.1-0.5-1.6c-0.3-0.4-0.8-0.6-1.3-0.6s-1,0.2-1.4,0.6
	c-0.4,0.4-0.6,1-0.7,1.6H85.1z"/>
<path class="st9" d="M94.4,240.5v-1.1l0,0c-0.3,0.8-1.1,1.3-1.9,1.2c-1.4,0-2.1-0.9-2.1-2.7v-3.5h0.5v3.3c0,0.6,0.1,1.2,0.4,1.8
	c0.3,0.4,0.8,0.6,1.3,0.6s1-0.2,1.3-0.6c0.4-0.5,0.6-1,0.5-1.6v-3.4h0.5v6H94.4z"/>
<path class="st9" d="M100.9,240.5V237c0-1.4-0.5-2.2-1.6-2.2c-0.5,0-1.1,0.2-1.4,0.6c-0.4,0.4-0.6,1-0.6,1.6v3.4h-0.5v-6h0.5v1.1
	l0,0c0.4-0.8,1.2-1.3,2.1-1.2c0.6,0,1.1,0.2,1.5,0.6c0.4,0.5,0.6,1.2,0.5,1.9v3.6L100.9,240.5z"/>
<path class="st9" d="M106.8,240.5v-1.2l0,0c-0.2,0.4-0.5,0.7-0.8,1c-0.4,0.2-0.8,0.4-1.2,0.4c-0.5,0-1-0.1-1.4-0.5
	c-0.3-0.3-0.5-0.8-0.5-1.2c0-1,0.7-1.7,2.1-1.9l1.8-0.3c0-1.3-0.5-1.9-1.4-1.9c-0.7,0-1.4,0.3-1.9,0.8V235c0.3-0.2,0.6-0.4,0.9-0.4
	c0.3-0.1,0.7-0.2,1.1-0.2c0.5,0,1.1,0.2,1.4,0.6c0.4,0.5,0.6,1.1,0.5,1.7v3.9L106.8,240.5z M105.2,237.5c-0.5,0-0.9,0.2-1.3,0.4
	c-0.5,0.5-0.5,1.3,0,1.9c0.3,0.2,0.6,0.4,1,0.3c0.6,0,1.1-0.2,1.4-0.6c0.4-0.5,0.6-1.1,0.6-1.7v-0.6L105.2,237.5z"/>
<path class="st9" d="M116.4,240.2c-0.5,0.3-1,0.4-1.6,0.4c-0.8,0-1.5-0.3-2-0.8c-0.5-0.6-0.8-1.4-0.8-2.2c0-0.9,0.3-1.7,0.8-2.3
	c0.6-0.6,1.3-0.9,2.2-0.9c0.5,0,0.9,0.1,1.3,0.3v0.6c-0.4-0.3-0.9-0.4-1.4-0.4c-0.7,0-1.3,0.3-1.7,0.8c-0.5,0.6-0.7,1.3-0.7,2
	s0.2,1.3,0.6,1.9c0.4,0.5,1,0.7,1.6,0.7s1.1-0.2,1.6-0.5L116.4,240.2z"/>
<path class="st9" d="M121.8,240.5v-1.1l0,0c-0.3,0.8-1.1,1.3-1.9,1.2c-1.4,0-2.1-0.9-2.1-2.7v-3.5h0.6v3.3c-0.1,0.6,0.1,1.2,0.4,1.8
	c0.3,0.4,0.8,0.6,1.3,0.6s1-0.2,1.4-0.6c0.4-0.5,0.5-1,0.5-1.6v-3.4h0.5v6H121.8z"/>
<path class="st9" d="M124.4,237.5c0,0.7,0.2,1.4,0.6,1.9s1,0.7,1.6,0.7c0.7,0,1.4-0.3,2-0.7v0.6c-0.6,0.4-1.3,0.7-2.1,0.7
	c-0.7,0-1.4-0.3-1.9-0.8c-0.5-0.7-0.8-1.5-0.7-2.4c0-0.8,0.2-1.6,0.7-2.2c0.5-0.6,1.2-0.9,1.9-0.9c0.7,0,1.3,0.3,1.7,0.8
	c0.4,0.6,0.6,1.4,0.6,2.1v0.2L124.4,237.5z M128.2,237c0-0.6-0.2-1.1-0.5-1.6c-0.3-0.4-0.8-0.6-1.3-0.6s-1,0.2-1.4,0.6
	c-0.4,0.5-0.6,1-0.7,1.6H128.2z"/>
<path class="st9" d="M134.4,240.5V237c0-1.4-0.5-2.2-1.6-2.2c-0.5,0-1.1,0.2-1.4,0.6c-0.4,0.4-0.6,1-0.6,1.6v3.4h-0.5v-6h0.5v1.1
	l0,0c0.4-0.8,1.2-1.3,2.1-1.2c0.6,0,1.1,0.2,1.5,0.6c0.4,0.5,0.6,1.2,0.5,1.9v3.6L134.4,240.5z"/>
<path class="st9" d="M139.1,240.4c-0.2,0.1-0.5,0.2-0.8,0.2c-0.9,0-1.3-0.5-1.3-1.6v-4h-1.1v-0.5h1.1V233l0.3-0.1l0.3-0.1v1.7h1.6
	v0.5h-1.6v4c0,0.3,0,0.6,0.2,0.9c0.2,0.2,0.4,0.3,0.7,0.3s0.5-0.1,0.7-0.2L139.1,240.4L139.1,240.4z"/>
<path class="st9" d="M143.9,240.5v-1.2l0,0c-0.2,0.4-0.5,0.7-0.8,1c-0.4,0.2-0.8,0.4-1.2,0.4c-0.5,0-1-0.1-1.4-0.5
	c-0.3-0.3-0.5-0.8-0.5-1.2c0-1,0.7-1.7,2.1-1.9l1.9-0.3c0-1.3-0.5-1.9-1.5-1.9c-0.7,0-1.4,0.3-1.9,0.8V235c0.3-0.2,0.6-0.4,0.9-0.4
	c0.3-0.1,0.7-0.2,1.1-0.2c0.5,0,1.1,0.2,1.4,0.6c0.4,0.5,0.6,1.1,0.5,1.7v3.9L143.9,240.5z M142.2,237.5c-0.5,0-0.9,0.2-1.3,0.4
	c-0.3,0.3-0.4,0.6-0.4,1c0,0.3,0.1,0.6,0.4,0.9c0.3,0.2,0.6,0.4,1,0.3c0.6,0,1.1-0.2,1.4-0.6c0.4-0.5,0.6-1.1,0.6-1.7v-0.6
	L142.2,237.5z"/>
<path class="st9" d="M147.4,238.2c0-0.1-0.1-0.3-0.1-0.4c0-0.2,0-0.3,0-0.5s0-0.3,0.1-0.5c0-0.2,0.1-0.3,0.2-0.4
	c0.1-0.1,0.2-0.3,0.3-0.4c0.1-0.1,0.3-0.2,0.4-0.4s0.2-0.2,0.4-0.4c0.1-0.1,0.2-0.2,0.3-0.4c0.1-0.1,0.2-0.3,0.2-0.5
	c0.1-0.2,0.1-0.4,0.1-0.6c0-0.2,0-0.4-0.1-0.6c-0.1-0.2-0.2-0.3-0.3-0.4c-0.1-0.1-0.3-0.2-0.5-0.3s-0.4-0.1-0.6-0.1
	c-0.3,0-0.7,0.1-1,0.2c-0.3,0.1-0.6,0.3-0.9,0.5v-0.6c0.3-0.2,0.6-0.4,0.9-0.5c0.3-0.1,0.7-0.2,1-0.2s0.5,0,0.8,0.1
	c0.2,0.1,0.5,0.2,0.6,0.4c0.2,0.2,0.3,0.4,0.4,0.6c0.1,0.2,0.2,0.5,0.2,0.8c0,0.2,0,0.4-0.1,0.6c-0.1,0.2-0.2,0.3-0.2,0.5
	c-0.1,0.2-0.2,0.3-0.3,0.4l-0.4,0.4c-0.2,0.2-0.4,0.4-0.5,0.5s-0.2,0.2-0.3,0.4c-0.1,0.1-0.1,0.2-0.1,0.3s-0.1,0.2-0.1,0.4
	s0,0.3,0.1,0.5c0,0.1,0.1,0.3,0.1,0.4L147.4,238.2z M147.6,240.6c-0.1,0-0.2,0-0.3-0.1s-0.1-0.2-0.1-0.3s0-0.2,0.1-0.3
	s0.2-0.1,0.3-0.1s0.3,0,0.4,0.1c0.1,0.1,0.1,0.2,0.1,0.3C148.1,240.4,147.9,240.6,147.6,240.6C147.7,240.6,147.7,240.6,147.6,240.6
	L147.6,240.6z"/>
<path class="st10" d="M160.4,240.2c-0.7,0.3-1.4,0.4-2.1,0.4c-1.1,0-2.1-0.4-2.8-1.1c-0.7-0.8-1.1-1.9-1.1-3
	c-0.1-1.2,0.4-2.4,1.2-3.3c0.8-0.8,1.9-1.3,3-1.2c0.6,0,1.3,0.1,1.9,0.3v0.6c-0.6-0.3-1.2-0.4-1.9-0.4c-1,0-1.9,0.4-2.6,1.1
	c-0.7,0.8-1,1.8-1,2.9c-0.1,1,0.3,2,0.9,2.7c0.6,0.7,1.5,1,2.4,1c0.7,0,1.4-0.1,2.1-0.4L160.4,240.2z"/>
<path class="st10" d="M164.9,235.1c-0.2-0.1-0.4-0.2-0.6-0.2c-0.5,0-1,0.3-1.2,0.7c-0.4,0.6-0.5,1.4-0.5,2.1v2.8h-0.5v-6h0.5v1.3
	l0,0c0.1-0.4,0.3-0.8,0.6-1.1c0.3-0.2,0.6-0.4,1-0.4c0.2,0,0.4,0,0.6,0.1L164.9,235.1z"/>
<path class="st10" d="M166,237.5c0,0.7,0.2,1.4,0.6,1.9c0.4,0.5,1,0.7,1.6,0.7c0.7,0,1.4-0.3,2-0.7v0.6c-0.6,0.4-1.3,0.7-2.1,0.7
	c-0.7,0-1.4-0.3-1.9-0.8c-0.5-0.7-0.8-1.5-0.7-2.4c0-0.8,0.2-1.6,0.8-2.2c0.5-0.6,1.2-0.9,1.9-0.9s1.3,0.3,1.7,0.8
	c0.4,0.6,0.6,1.4,0.6,2.1v0.2L166,237.5z M169.9,237c0-0.6-0.2-1.1-0.5-1.6c-0.3-0.4-0.8-0.6-1.3-0.6s-1,0.2-1.4,0.6
	c-0.4,0.4-0.7,1-0.7,1.6H169.9z"/>
<path class="st10" d="M172,237.5c0,0.7,0.2,1.4,0.6,1.9c0.4,0.5,1,0.7,1.6,0.7c0.7,0,1.4-0.3,2-0.7v0.6c-0.6,0.4-1.3,0.7-2.1,0.7
	c-0.7,0-1.4-0.3-1.9-0.8c-0.5-0.7-0.8-1.5-0.7-2.4c0-0.8,0.2-1.6,0.8-2.2c0.5-0.6,1.2-0.9,1.9-0.9s1.3,0.3,1.7,0.8
	c0.4,0.6,0.6,1.4,0.6,2.1v0.2L172,237.5z M175.9,237c0-0.6-0.2-1.1-0.5-1.6c-0.3-0.4-0.8-0.6-1.3-0.6s-1,0.2-1.4,0.6
	c-0.4,0.4-0.7,1-0.7,1.6H175.9z"/>
<path class="st10" d="M185.2,240.5v-1.1l0,0c-0.3,0.8-1.1,1.3-1.9,1.2c-1.4,0-2.1-0.9-2.1-2.7v-3.5h0.5v3.3
	c-0.1,0.6,0.1,1.2,0.4,1.8c0.3,0.4,0.8,0.6,1.3,0.6s1-0.2,1.4-0.6c0.4-0.5,0.6-1,0.5-1.6v-3.4h0.5v6H185.2z"/>
<path class="st10" d="M191.7,240.5V237c0-1.4-0.5-2.2-1.6-2.2c-0.5,0-1.1,0.2-1.4,0.6c-0.4,0.4-0.6,1-0.6,1.6v3.4h-0.5v-6h0.5v1.1
	l0,0c0.4-0.8,1.1-1.3,2-1.2c0.6,0,1.1,0.2,1.5,0.6c0.4,0.5,0.6,1.2,0.5,1.9v3.6L191.7,240.5z"/>
<path class="st10" d="M197.7,240.5v-1.2l0,0c-0.2,0.4-0.5,0.8-0.8,1c-0.4,0.2-0.8,0.4-1.2,0.4c-0.5,0-1-0.1-1.4-0.5
	c-0.3-0.3-0.5-0.8-0.5-1.2c0-1,0.7-1.7,2.1-1.9l1.9-0.3c0-1.3-0.5-1.9-1.4-1.9c-0.7,0-1.4,0.3-1.9,0.8V235c0.3-0.2,0.6-0.4,0.9-0.4
	c0.3-0.1,0.7-0.2,1.1-0.2c0.5,0,1.1,0.2,1.4,0.6c0.4,0.5,0.6,1.1,0.5,1.7v3.9L197.7,240.5z M196,237.5c-0.5,0-0.9,0.2-1.3,0.4
	c-0.5,0.5-0.5,1.3,0,1.9c0.3,0.2,0.6,0.4,1,0.3c0.6,0,1.1-0.2,1.4-0.6c0.4-0.5,0.6-1.1,0.6-1.7v-0.6L196,237.5z"/>
<path class="st10" d="M200.4,240.6c-0.1,0-0.2,0-0.3-0.1s-0.1-0.2-0.1-0.3s0-0.3,0.1-0.3c0.1-0.1,0.2-0.1,0.3-0.1s0.2,0,0.3,0.1
	s0.1,0.2,0.1,0.3s0,0.2-0.1,0.3C200.6,240.6,200.5,240.6,200.4,240.6z"/>
<path class="st10" d="M39,269.3v-8.4h0.6v8.4H39z"/>
<path class="st10" d="M45.7,269.3v-3.5c0-1.4-0.5-2.2-1.6-2.2c-0.5,0-1.1,0.2-1.4,0.6c-0.4,0.4-0.6,1-0.5,1.6v3.4h-0.5v-6h0.5v1.1
	l0,0c0.4-0.8,1.1-1.3,2-1.2c0.6,0,1.1,0.2,1.5,0.6c0.4,0.5,0.6,1.2,0.5,1.9v3.6h-0.5V269.3z"/>
<path class="st10" d="M48.3,261.8c-0.1,0-0.2-0.1-0.3-0.1c-0.1-0.1-0.1-0.2-0.1-0.3c0-0.1,0-0.2,0.1-0.3c0.1-0.1,0.2-0.1,0.3-0.1
	s0.2,0,0.3,0.1s0.1,0.2,0.1,0.3c0,0.1,0,0.2-0.1,0.3C48.5,261.7,48.4,261.8,48.3,261.8z M48,269.3v-6h0.5v6H48z"/>
<path class="st10" d="M54.4,269c-0.5,0.3-1,0.4-1.6,0.4c-0.8,0-1.5-0.3-2-0.8c-0.5-0.6-0.8-1.4-0.8-2.2c0-0.9,0.3-1.7,0.8-2.3
	c0.6-0.6,1.3-0.9,2.2-0.9c0.5,0,0.9,0.1,1.3,0.3v0.6c-0.4-0.3-0.9-0.4-1.4-0.4c-0.7,0-1.3,0.3-1.7,0.8c-0.5,0.6-0.7,1.3-0.7,2
	s0.2,1.3,0.6,1.9c0.4,0.5,1,0.7,1.6,0.7s1.1-0.2,1.6-0.5L54.4,269z"/>
<path class="st10" d="M56.1,261.8c-0.3,0-0.5-0.2-0.5-0.5c0-0.1,0-0.2,0.1-0.3c0.1-0.1,0.2-0.1,0.3-0.1s0.2,0,0.3,0.1
	s0.1,0.2,0.1,0.3C56.5,261.6,56.3,261.8,56.1,261.8z M55.8,269.3v-6h0.5v6H55.8z"/>
<path class="st10" d="M61.9,269.3v-1.2l0,0c-0.2,0.4-0.5,0.8-0.8,1c-0.4,0.2-0.8,0.4-1.2,0.4c-0.5,0-1-0.1-1.3-0.5
	c-0.3-0.3-0.5-0.8-0.5-1.2c0-1.1,0.7-1.7,2.1-1.9l1.8-0.3c0-1.3-0.5-1.9-1.5-1.9c-0.7,0-1.4,0.3-1.9,0.8v-0.7
	c0.3-0.2,0.6-0.4,0.9-0.4c0.3-0.1,0.7-0.2,1.1-0.2c0.5,0,1.1,0.2,1.4,0.6c0.4,0.5,0.5,1.1,0.5,1.7v3.9L61.9,269.3z M60.2,266.3
	c-0.5,0-0.9,0.2-1.3,0.4c-0.3,0.3-0.4,0.6-0.4,1c0,0.3,0.1,0.6,0.3,0.9c0.3,0.2,0.6,0.4,1,0.3c0.6,0,1.1-0.2,1.4-0.6
	c0.4-0.5,0.6-1.1,0.6-1.7V266L60.2,266.3z"/>
<path class="st10" d="M67.1,263.9c-0.2-0.1-0.4-0.2-0.6-0.2c-0.5,0-1,0.3-1.2,0.7c-0.4,0.6-0.5,1.4-0.5,2.1v2.8h-0.5v-6h0.5v1.3l0,0
	c0.1-0.4,0.3-0.8,0.7-1.1c0.3-0.2,0.6-0.4,1-0.4c0.2,0,0.4,0,0.6,0.1V263.9z"/>
<path class="st10" d="M71.2,269v-0.6c0.2,0.2,0.5,0.3,0.7,0.4s0.5,0.1,0.8,0.1c0.9,0,1.4-0.4,1.4-1.1c0-0.3-0.1-0.5-0.3-0.7
	c-0.3-0.2-0.6-0.4-1-0.6c-0.5-0.2-0.9-0.4-1.2-0.8c-0.2-0.3-0.4-0.6-0.3-1c0-0.5,0.2-0.9,0.6-1.2c0.4-0.3,0.9-0.5,1.4-0.4
	c0.5,0,0.9,0.1,1.3,0.3v0.6c-0.4-0.3-0.9-0.4-1.4-0.4c-0.4,0-0.7,0.1-1,0.3c-0.4,0.4-0.5,1-0.1,1.5c0.3,0.3,0.6,0.5,1,0.6
	c0.5,0.2,0.9,0.5,1.3,0.8c0.3,0.3,0.4,0.6,0.3,1c0,0.5-0.2,0.9-0.5,1.2c-0.4,0.3-0.9,0.5-1.5,0.5C72.1,269.4,71.6,269.3,71.2,269z"
	/>
<path class="st10" d="M76.2,266.3c0,0.7,0.2,1.4,0.6,1.9s1,0.7,1.6,0.7c0.7,0,1.4-0.3,2-0.7v0.6c-0.6,0.4-1.3,0.7-2.1,0.7
	c-0.7,0-1.4-0.3-1.9-0.8c-0.5-0.7-0.8-1.5-0.7-2.3c0-0.8,0.2-1.6,0.8-2.2c0.5-0.6,1.2-0.9,1.9-0.9c0.7,0,1.3,0.3,1.7,0.8
	c0.4,0.6,0.6,1.4,0.6,2.1v0.2h-4.5V266.3z M80.1,265.8c0-0.6-0.2-1.1-0.5-1.6c-0.3-0.4-0.8-0.6-1.3-0.6s-1,0.2-1.4,0.6
	s-0.6,1-0.7,1.6H80.1z"/>
<path class="st10" d="M81.9,269v-0.6c0.2,0.2,0.5,0.3,0.7,0.4s0.5,0.1,0.8,0.1c0.9,0,1.4-0.4,1.4-1.1c0-0.3-0.1-0.5-0.3-0.7
	c-0.3-0.2-0.6-0.4-1-0.6c-0.5-0.2-0.9-0.4-1.2-0.8c-0.2-0.3-0.4-0.6-0.3-1c0-0.5,0.2-0.9,0.6-1.2c0.4-0.3,0.9-0.5,1.4-0.4
	c0.5,0,0.9,0.1,1.3,0.3v0.6c-0.4-0.3-0.9-0.4-1.4-0.4c-0.4,0-0.7,0.1-1,0.3c-0.2,0.2-0.4,0.5-0.4,0.8s0.1,0.5,0.2,0.7
	c0.3,0.3,0.6,0.5,1,0.6c0.5,0.2,0.9,0.4,1.3,0.8c0.3,0.3,0.4,0.6,0.3,1c0,0.5-0.2,0.9-0.5,1.2c-0.4,0.3-0.9,0.5-1.5,0.5
	C82.8,269.5,82.3,269.3,81.9,269z"/>
<path class="st10" d="M87.1,261.8c-0.1,0-0.2-0.1-0.3-0.1c-0.1-0.1-0.1-0.2-0.1-0.3c0-0.1,0-0.2,0.1-0.3c0.1-0.1,0.2-0.1,0.3-0.1
	c0.1,0,0.2,0,0.3,0.1c0.1,0.1,0.1,0.2,0.1,0.3c0,0.1,0,0.2-0.1,0.3C87.3,261.7,87.2,261.8,87.1,261.8z M86.8,269.3v-6h0.5v6H86.8z"
	/>
<path class="st10" d="M91.7,269.4c-0.8,0-1.6-0.3-2.1-0.9c-1-1.4-1-3.2,0-4.6c0.5-0.6,1.3-0.9,2.1-0.8c0.8,0,1.5,0.3,2,0.8
	c1,1.4,1,3.2,0,4.6C93.2,269.1,92.5,269.5,91.7,269.4z M91.7,263.6c-0.6,0-1.3,0.2-1.7,0.7c-0.5,0.6-0.7,1.3-0.6,2
	c0,0.7,0.2,1.4,0.6,1.9s1,0.7,1.7,0.7c0.6,0,1.3-0.2,1.7-0.7c0.8-1.2,0.8-2.7,0-3.9C93,263.9,92.4,263.6,91.7,263.6L91.7,263.6z
	 M91.5,262.3H91l1.4-1.9H93L91.5,262.3z"/>
<path class="st10" d="M100.1,269.3v-3.5c0-1.4-0.5-2.2-1.6-2.2c-0.5,0-1.1,0.2-1.4,0.6c-0.4,0.4-0.6,1-0.6,1.6v3.4H96v-6h0.5v1.1
	l0,0c0.4-0.8,1.2-1.3,2.1-1.2c0.6,0,1.1,0.2,1.5,0.6c0.4,0.5,0.6,1.2,0.5,1.9v3.6h-0.5V269.3z"/>
<path class="st10" d="M109.6,269c-0.5,0.3-1,0.4-1.6,0.4c-0.8,0-1.5-0.3-2-0.8c-0.5-0.6-0.8-1.4-0.8-2.2c0-0.9,0.3-1.7,0.8-2.3
	c0.6-0.6,1.3-0.9,2.2-0.9c0.5,0,0.9,0.1,1.3,0.3v0.6c-0.4-0.3-0.9-0.4-1.4-0.4c-0.7,0-1.3,0.3-1.7,0.8c-0.5,0.6-0.7,1.3-0.7,2
	s0.2,1.3,0.6,1.9c0.4,0.5,1,0.7,1.6,0.7s1.1-0.2,1.6-0.5L109.6,269z"/>
<path class="st10" d="M113.5,269.4c-0.8,0-1.6-0.3-2.1-0.9c-1-1.4-1-3.2,0-4.6c0.6-0.6,1.3-0.9,2.1-0.8c0.8,0,1.5,0.3,2,0.8
	c0.5,0.7,0.8,1.5,0.7,2.3c0,0.8-0.2,1.6-0.8,2.3C115,269.1,114.2,269.5,113.5,269.4z M113.5,263.6c-0.6,0-1.3,0.2-1.7,0.7
	c-0.5,0.6-0.7,1.3-0.6,2c0,0.7,0.2,1.4,0.6,1.9s1,0.7,1.7,0.7c0.6,0,1.3-0.2,1.7-0.7c0.8-1.2,0.8-2.7,0-3.9
	C114.7,263.9,114.1,263.6,113.5,263.6L113.5,263.6z"/>
<path class="st10" d="M121.9,269.3v-3.5c0-1.4-0.5-2.2-1.6-2.2c-0.5,0-1.1,0.2-1.4,0.6c-0.4,0.4-0.6,1-0.6,1.6v3.4h-0.5v-6h0.5v1.1
	l0,0c0.4-0.8,1.1-1.3,2-1.2c0.6,0,1.1,0.2,1.5,0.6c0.4,0.5,0.6,1.2,0.5,1.9v3.6h-0.4V269.3z"/>
<path class="st10" d="M131.5,269.3v-1.1l0,0c-0.3,0.8-1.1,1.3-1.9,1.2c-1.4,0-2.1-0.9-2.1-2.7v-3.5h0.5v3.3c0,0.6,0.1,1.2,0.4,1.8
	c0.3,0.4,0.8,0.6,1.3,0.5c0.5,0,1-0.2,1.4-0.6c0.4-0.5,0.6-1,0.5-1.6v-3.4h0.5v6L131.5,269.3z"/>
<path class="st10" d="M138,269.3v-3.5c0-1.4-0.5-2.2-1.6-2.2c-0.5,0-1.1,0.2-1.4,0.6c-0.4,0.4-0.6,1-0.6,1.6v3.4h-0.5v-6h0.5v1.1
	l0,0c0.4-0.8,1.2-1.3,2.1-1.2c0.6,0,1.1,0.2,1.5,0.6c0.4,0.5,0.6,1.2,0.5,1.9v3.6H138V269.3z"/>
<path class="st10" d="M143.9,269.3v-1.2l0,0c-0.2,0.4-0.5,0.7-0.8,1c-0.4,0.2-0.8,0.4-1.2,0.4c-0.5,0-1-0.1-1.4-0.5
	c-0.3-0.3-0.5-0.8-0.5-1.2c0-1.1,0.7-1.7,2.1-1.9l1.9-0.3c0-1.3-0.5-1.9-1.4-1.9c-0.7,0-1.4,0.3-1.9,0.8v-0.7
	c0.3-0.2,0.6-0.4,0.9-0.4c0.3-0.1,0.7-0.2,1.1-0.2c0.5,0,1.1,0.2,1.4,0.6c0.4,0.5,0.6,1.1,0.5,1.7v3.9L143.9,269.3z M142.3,266.3
	c-0.5,0-0.9,0.2-1.3,0.4c-0.3,0.3-0.4,0.6-0.4,1c0,0.3,0.1,0.6,0.4,0.9c0.3,0.2,0.6,0.4,1,0.3c0.6,0,1.1-0.2,1.4-0.6
	c0.4-0.5,0.6-1.1,0.6-1.7V266L142.3,266.3z"/>
<path class="st10" d="M149.6,269.3v-8.9h0.5v8.9H149.6z"/>
<path class="st10" d="M152,269.3v-8.9h0.5v8.9H152z"/>
<path class="st10" d="M158.1,269.3v-1.2l0,0c-0.2,0.4-0.5,0.8-0.8,1c-0.4,0.2-0.8,0.4-1.2,0.4c-0.5,0-1-0.1-1.4-0.5
	c-0.3-0.3-0.5-0.8-0.5-1.2c0-1.1,0.7-1.7,2.1-1.9l1.9-0.3c0-1.3-0.5-1.9-1.4-1.9c-0.7,0-1.4,0.3-1.9,0.8v-0.7
	c0.3-0.2,0.6-0.4,0.9-0.4c0.3-0.1,0.7-0.2,1.1-0.2c0.5,0,1.1,0.2,1.4,0.6c0.4,0.5,0.6,1.1,0.5,1.7v3.9L158.1,269.3z M156.4,266.3
	c-0.5,0-0.9,0.2-1.3,0.4c-0.3,0.3-0.4,0.6-0.4,1c0,0.3,0.1,0.6,0.4,0.9c0.3,0.2,0.6,0.4,1,0.3c0.6,0,1.1-0.2,1.4-0.6
	c0.4-0.5,0.6-1.1,0.6-1.7V266L156.4,266.3z"/>
<path class="st10" d="M162.4,269.3h-0.5l-2.3-6h0.6l1.8,4.8c0.1,0.2,0.1,0.4,0.2,0.6l0,0c0-0.2,0.1-0.4,0.2-0.6l1.9-4.8h0.6
	L162.4,269.3z"/>
<path class="st10" d="M166,266.3c0,0.7,0.2,1.4,0.6,1.9c0.4,0.5,1,0.7,1.6,0.7c0.7,0,1.4-0.3,2-0.7v0.6c-0.6,0.4-1.3,0.7-2.1,0.7
	c-0.7,0-1.4-0.3-1.9-0.8c-0.5-0.7-0.8-1.5-0.7-2.3c0-0.8,0.2-1.6,0.7-2.2s1.2-0.9,2-0.9c0.7,0,1.3,0.3,1.7,0.8
	c0.4,0.6,0.6,1.4,0.6,2.1v0.2H166V266.3z M169.9,265.8c0-0.6-0.2-1.1-0.5-1.6c-0.3-0.4-0.8-0.6-1.3-0.6s-1,0.2-1.4,0.6
	c-0.4,0.5-0.6,1-0.7,1.6H169.9z"/>
<path class="st10" d="M179.5,269.3v-1.1l0,0c-0.2,0.4-0.5,0.7-0.9,0.9c-0.4,0.2-0.8,0.3-1.3,0.3c-0.7,0-1.4-0.3-1.8-0.8
	c-0.5-0.6-0.8-1.4-0.7-2.2c0-0.9,0.2-1.7,0.8-2.4c0.5-0.6,1.2-0.9,2-0.9c0.8-0.1,1.6,0.4,1.9,1.1l0,0v-3.9h0.5v8.9h-0.5V269.3z
	 M179.5,265.7c0-0.5-0.2-1-0.5-1.4c-0.4-0.4-0.9-0.6-1.4-0.6c-0.6,0-1.2,0.3-1.6,0.7c-0.8,1.2-0.8,2.7-0.1,3.9
	c0.3,0.4,0.9,0.7,1.4,0.7c0.6,0,1.2-0.2,1.6-0.6c0.4-0.4,0.6-1,0.6-1.6V265.7z"/>
<path class="st10" d="M182.1,266.3c0,0.7,0.2,1.4,0.6,1.9c0.4,0.5,1,0.7,1.6,0.7c0.7,0,1.4-0.3,2-0.7v0.6c-0.6,0.4-1.3,0.7-2.1,0.7
	c-0.7,0-1.4-0.3-1.9-0.8c-0.5-0.7-0.8-1.5-0.7-2.3c0-0.8,0.2-1.6,0.8-2.2c0.5-0.6,1.2-0.9,1.9-0.9s1.3,0.3,1.7,0.8
	c0.4,0.6,0.6,1.4,0.6,2.1v0.2h-4.5L182.1,266.3L182.1,266.3z M185.9,265.8c0-0.6-0.2-1.1-0.5-1.6c-0.3-0.4-0.8-0.6-1.3-0.6
	s-1,0.2-1.4,0.6s-0.6,1-0.7,1.6H185.9z"/>
<path class="st10" d="M191,269v-0.6c0.2,0.2,0.5,0.3,0.7,0.4s0.5,0.1,0.8,0.1c0.9,0,1.4-0.4,1.4-1.1c0-0.3-0.1-0.5-0.3-0.7
	c-0.3-0.2-0.6-0.4-1-0.6c-0.5-0.2-0.9-0.4-1.2-0.8c-0.2-0.3-0.4-0.6-0.4-1c0-0.5,0.2-0.9,0.6-1.2c0.4-0.3,0.9-0.5,1.4-0.4
	c0.5,0,0.9,0.1,1.3,0.3v0.6c-0.4-0.3-0.9-0.4-1.4-0.4c-0.4,0-0.7,0.1-1,0.3c-0.2,0.2-0.4,0.5-0.4,0.8s0.1,0.5,0.2,0.7
	c0.3,0.3,0.6,0.5,1,0.6c0.5,0.2,0.9,0.4,1.3,0.8c0.3,0.3,0.4,0.6,0.4,1c0,0.5-0.2,0.9-0.5,1.2c-0.4,0.3-0.9,0.5-1.5,0.5
	C191.9,269.4,191.4,269.3,191,269z"/>
<path class="st10" d="M196.1,266.3c0,0.7,0.2,1.4,0.6,1.9c0.4,0.5,1,0.7,1.6,0.7c0.7,0,1.4-0.3,2-0.7v0.6c-0.6,0.4-1.3,0.7-2.1,0.7
	c-0.7,0-1.4-0.3-1.9-0.8c-0.5-0.7-0.8-1.5-0.7-2.3c0-0.8,0.2-1.6,0.7-2.2s1.2-0.9,1.9-0.9s1.3,0.3,1.7,0.8c0.4,0.6,0.6,1.4,0.6,2.1
	v0.2h-4.4L196.1,266.3L196.1,266.3z M199.9,265.8c0-0.6-0.2-1.1-0.5-1.6c-0.3-0.4-0.8-0.6-1.3-0.6s-1,0.2-1.4,0.6
	c-0.4,0.5-0.6,1-0.7,1.6H199.9z"/>
<path class="st10" d="M206.8,268.9c0.1,0.9-0.2,1.8-0.7,2.5c-0.6,0.6-1.5,0.9-2.3,0.8c-0.6,0-1.2-0.2-1.8-0.5v-0.6
	c0.5,0.3,1.2,0.5,1.8,0.5c1.7,0,2.5-0.9,2.5-2.6v-0.8l0,0c-0.4,0.8-1.3,1.3-2.2,1.2c-0.7,0-1.4-0.3-1.8-0.8
	c-0.5-0.6-0.7-1.4-0.7-2.2c0-0.8,0.2-1.7,0.8-2.3c0.5-0.6,1.2-0.9,2-0.9c0.8-0.1,1.6,0.4,1.9,1.1l0,0v-1h0.5V268.9z M206.2,265.6
	c0-0.5-0.2-1-0.5-1.4c-0.4-0.4-0.9-0.6-1.4-0.6c-0.6,0-1.2,0.3-1.6,0.8c-0.4,0.6-0.6,1.3-0.6,2s0.2,1.4,0.6,1.9
	c0.4,0.4,0.9,0.7,1.5,0.7s1.1-0.2,1.5-0.6s0.6-1,0.6-1.5L206.2,265.6z"/>
<path class="st10" d="M212.7,269.3v-1.1l0,0c-0.3,0.8-1.1,1.3-1.9,1.2c-1.4,0-2.1-0.9-2.1-2.7v-3.5h0.5v3.3
	c-0.1,0.6,0.1,1.2,0.4,1.8c0.3,0.4,0.8,0.6,1.3,0.5c0.5,0,1-0.2,1.4-0.6c0.4-0.5,0.6-1,0.5-1.6v-3.4h0.5v6L212.7,269.3z"/>
<path class="st10" d="M218,263.9c-0.2-0.1-0.4-0.2-0.6-0.2c-0.5,0-1,0.3-1.2,0.7c-0.4,0.6-0.5,1.4-0.5,2.1v2.8h-0.5v-6h0.5v1.3l0,0
	c0.1-0.4,0.3-0.8,0.6-1.1c0.3-0.2,0.6-0.4,1-0.4c0.2,0,0.4,0,0.6,0.1L218,263.9z"/>
<path class="st10" d="M219.4,261.8c-0.1,0-0.2,0-0.3-0.1s-0.1-0.2-0.1-0.3c0-0.1,0-0.2,0.1-0.3c0.2-0.2,0.4-0.2,0.6,0
	c0.1,0.1,0.1,0.2,0.1,0.3c0,0.1,0,0.2-0.1,0.3C219.6,261.7,219.5,261.8,219.4,261.8z M219.1,269.3v-6h0.5v6H219.1z"/>
<path class="st10" d="M225.8,269.3v-1.1l0,0c-0.2,0.4-0.5,0.7-0.9,0.9c-0.4,0.2-0.8,0.3-1.3,0.3c-0.7,0-1.4-0.3-1.8-0.8
	c-0.5-0.6-0.8-1.4-0.7-2.2c0-0.8,0.2-1.7,0.8-2.4c0.5-0.6,1.2-0.9,2-0.9c0.8-0.1,1.6,0.4,1.9,1.1l0,0v-3.9h0.5v8.9h-0.5V269.3z
	 M225.8,265.7c0-0.5-0.2-1-0.5-1.4c-0.4-0.4-0.9-0.6-1.4-0.6c-0.6,0-1.2,0.3-1.6,0.7c-0.8,1.2-0.8,2.7-0.1,3.9
	c0.3,0.4,0.9,0.7,1.4,0.7c0.6,0,1.2-0.2,1.6-0.6c0.4-0.4,0.6-1,0.6-1.6V265.7z"/>
<path class="st10" d="M231.9,269.3v-1.2l0,0c-0.2,0.4-0.5,0.7-0.8,1c-0.4,0.2-0.8,0.4-1.2,0.4c-0.5,0-1-0.1-1.4-0.5
	c-0.3-0.3-0.5-0.8-0.5-1.2c0-1.1,0.7-1.7,2.1-1.9l1.9-0.3c0-1.3-0.5-1.9-1.4-1.9c-0.7,0-1.4,0.3-1.9,0.8v-0.7
	c0.3-0.2,0.6-0.4,0.9-0.4c0.3-0.1,0.7-0.2,1.1-0.2c0.5,0,1.1,0.2,1.4,0.6c0.4,0.5,0.6,1.1,0.5,1.7v3.9L231.9,269.3z M230.2,266.3
	c-0.5,0-0.9,0.2-1.3,0.4c-0.3,0.3-0.4,0.6-0.4,1c0,0.3,0.1,0.6,0.4,0.9c0.3,0.2,0.6,0.4,1,0.3c0.6,0,1.1-0.2,1.4-0.6
	c0.4-0.5,0.6-1.1,0.6-1.7V266L230.2,266.3z"/>
<path class="st10" d="M238.5,269.3v-1.1l0,0c-0.2,0.4-0.5,0.7-0.9,0.9c-0.4,0.2-0.8,0.3-1.3,0.3c-0.7,0-1.4-0.3-1.8-0.8
	c-0.5-0.6-0.8-1.4-0.7-2.2c0-0.8,0.2-1.7,0.8-2.4c0.5-0.6,1.2-0.9,2-0.9c0.8-0.1,1.6,0.4,1.9,1.1l0,0v-3.9h0.5v8.9h-0.5V269.3z
	 M238.5,265.7c0-0.5-0.2-1-0.5-1.4c-0.4-0.4-0.9-0.6-1.4-0.6c-0.6,0-1.2,0.3-1.6,0.7c-0.8,1.2-0.8,2.7-0.1,3.9
	c0.3,0.4,0.9,0.7,1.4,0.7c0.6,0,1.2-0.2,1.6-0.6c0.4-0.4,0.6-1,0.6-1.6V265.7z"/>
<path class="st10" d="M42.5,298.2c-1.1,0.1-2.1-0.4-2.8-1.2c-0.7-0.8-1.1-1.9-1.1-3.1c-0.1-1.2,0.3-2.3,1.1-3.2
	c0.8-0.8,1.9-1.3,3-1.2c1,0,2.1,0.4,2.8,1.2c0.7,0.8,1.1,1.9,1.1,3c0.1,1.2-0.3,2.4-1.1,3.3C44.6,297.9,43.6,298.3,42.5,298.2z
	 M42.5,290.1c-0.9,0-1.8,0.4-2.4,1.1c-0.7,0.8-1,1.8-0.9,2.8c-0.1,1,0.3,2,0.9,2.8c0.6,0.7,1.5,1,2.4,1s1.8-0.3,2.5-1
	c1.2-1.7,1.2-3.9,0-5.6C44.3,290.4,43.4,290.1,42.5,290.1L42.5,290.1z"/>
<path class="st10" d="M48.6,297L48.6,297v3.8H48v-8.7h0.5v1.2l0,0c0.2-0.4,0.5-0.8,0.9-1s0.9-0.4,1.3-0.4c0.7,0,1.4,0.3,1.8,0.8
	c0.5,0.6,0.7,1.4,0.6,2.1c0,0.9-0.2,1.7-0.7,2.4c-0.5,0.6-1.2,1-1.9,0.9C49.7,298.3,48.9,297.8,48.6,297z M48.6,294.8v0.8
	c0,0.6,0.2,1.1,0.6,1.5c0.4,0.4,0.9,0.7,1.5,0.6c0.6,0,1.2-0.3,1.5-0.8c0.4-0.6,0.6-1.3,0.6-2.1c0-0.6-0.2-1.3-0.5-1.8
	c-0.3-0.4-0.9-0.7-1.4-0.7c-0.6,0-1.2,0.2-1.6,0.7C48.8,293.6,48.5,294.2,48.6,294.8L48.6,294.8z"/>
<path class="st10" d="M58.6,297.8c-0.5,0.3-1,0.4-1.6,0.4c-0.8,0-1.5-0.3-2-0.8c-0.5-0.6-0.8-1.4-0.8-2.2c0-0.9,0.3-1.7,0.8-2.3
	c0.6-0.6,1.3-0.9,2.2-0.9c0.5,0,0.9,0.1,1.3,0.3v0.6c-0.4-0.3-0.9-0.4-1.4-0.4c-0.7,0-1.3,0.3-1.7,0.8c-0.5,0.6-0.7,1.3-0.7,2
	s0.2,1.3,0.6,1.9c0.4,0.5,1,0.7,1.6,0.7s1.1-0.2,1.6-0.5L58.6,297.8z"/>
<path class="st10" d="M60.3,290.6c-0.1,0-0.2,0-0.3-0.1s-0.1-0.2-0.1-0.3c0-0.1,0-0.2,0.1-0.3c0.1-0.1,0.2-0.1,0.3-0.1
	s0.2,0,0.3,0.1s0.1,0.2,0.1,0.3C60.8,290.4,60.6,290.6,60.3,290.6L60.3,290.6z M60.1,298.1v-6h0.5v6H60.1z"/>
<path class="st10" d="M64.9,298.2c-0.8,0-1.6-0.3-2.1-0.9c-1-1.4-1-3.2,0-4.6c0.6-0.6,1.4-0.8,2.2-0.8c0.8,0,1.5,0.3,2,0.8
	c1,1.4,1,3.2,0,4.6C66.5,298,65.7,298.3,64.9,298.2z M64.9,292.4c-0.6,0-1.3,0.2-1.7,0.7c-0.5,0.6-0.7,1.3-0.6,2
	c0,0.7,0.2,1.4,0.6,1.9c0.4,0.5,1,0.7,1.7,0.7c0.6,0,1.3-0.2,1.7-0.7c0.4-0.6,0.6-1.3,0.6-2c0.1-0.7-0.2-1.4-0.6-2
	C66.2,292.6,65.6,292.4,64.9,292.4L64.9,292.4z"/>
<path class="st10" d="M73.3,298.1v-3.5c0-1.4-0.5-2.2-1.6-2.2c-0.5,0-1.1,0.2-1.4,0.6c-0.4,0.4-0.6,1-0.6,1.6v3.4h-0.5v-6h0.5v1.1
	l0,0c0.4-0.8,1.2-1.2,2.1-1.2c0.6,0,1.1,0.2,1.5,0.6c0.4,0.5,0.6,1.2,0.5,1.9v3.6L73.3,298.1z"/>
<path class="st10" d="M75.8,295.1c0,0.7,0.2,1.4,0.6,1.9s1,0.7,1.6,0.7c0.7,0,1.4-0.3,2-0.7v0.6c-0.6,0.4-1.3,0.7-2.1,0.7
	c-0.7,0-1.4-0.3-1.9-0.8c-0.5-0.7-0.8-1.5-0.7-2.3c0-0.8,0.2-1.6,0.8-2.2c0.5-0.6,1.2-0.9,1.9-0.9c0.7,0,1.3,0.3,1.7,0.8
	c0.4,0.6,0.6,1.4,0.6,2.1v0.2h-4.5V295.1z M79.7,294.6c0-0.6-0.2-1.1-0.5-1.6c-0.3-0.4-0.8-0.6-1.3-0.6s-1,0.2-1.4,0.6
	s-0.6,1-0.7,1.6H79.7z"/>
<path class="st10" d="M81.4,297.8v-0.7c0.2,0.2,0.5,0.3,0.7,0.4s0.5,0.1,0.8,0.1c1,0,1.4-0.4,1.4-1.1c0-0.3-0.1-0.5-0.3-0.7
	c-0.3-0.2-0.6-0.4-1-0.6c-0.5-0.2-0.9-0.4-1.2-0.8c-0.5-0.6-0.5-1.6,0.2-2.2l0,0c0.4-0.3,0.9-0.5,1.4-0.4c0.5,0,0.9,0.1,1.3,0.3v0.6
	c-0.4-0.3-0.9-0.4-1.4-0.4c-0.4,0-0.7,0.1-1,0.3c-0.2,0.2-0.4,0.5-0.4,0.8s0.1,0.5,0.2,0.7c0.3,0.3,0.6,0.5,1,0.6
	c0.5,0.2,0.9,0.5,1.3,0.8c0.3,0.3,0.4,0.6,0.3,1c0,0.5-0.2,0.9-0.5,1.2c-0.4,0.3-0.9,0.5-1.5,0.5C82.3,298.3,81.8,298.1,81.4,297.8z
	"/>
<path class="st10" d="M93.9,298.1V297l0,0c-0.2,0.4-0.5,0.7-0.9,0.9c-0.4,0.2-0.8,0.3-1.3,0.3c-0.7,0-1.4-0.3-1.8-0.8
	c-0.5-0.6-0.8-1.4-0.7-2.2c0-0.8,0.2-1.7,0.8-2.4c0.5-0.6,1.2-0.9,2-0.9c0.8-0.1,1.6,0.4,1.9,1.1l0,0v-3.8h0.5v8.9H93.9z
	 M93.9,294.5c0-0.5-0.2-1-0.5-1.4c-0.4-0.4-0.9-0.6-1.4-0.6c-0.6,0-1.2,0.3-1.6,0.7c-0.4,0.6-0.7,1.3-0.6,2c0,0.7,0.2,1.4,0.6,1.9
	c0.3,0.4,0.9,0.7,1.4,0.7c0.6,0,1.2-0.2,1.6-0.6s0.6-1,0.6-1.5L93.9,294.5z"/>
<path class="st10" d="M96.5,295.1c0,0.7,0.2,1.4,0.6,1.9s1,0.7,1.6,0.7c0.7,0,1.4-0.3,2-0.7v0.6c-0.6,0.4-1.3,0.7-2.1,0.7
	c-0.7,0-1.4-0.3-1.9-0.8c-0.5-0.7-0.8-1.5-0.7-2.3c0-0.8,0.2-1.6,0.8-2.2c0.5-0.6,1.2-0.9,1.9-0.9c0.7,0,1.3,0.3,1.7,0.8
	c0.4,0.6,0.6,1.4,0.6,2.1v0.2h-4.5V295.1z M100.4,294.6c0-0.6-0.2-1.1-0.5-1.6c-0.3-0.4-0.8-0.6-1.3-0.6s-1,0.2-1.4,0.6
	s-0.6,1-0.7,1.6H100.4z"/>
<path class="st10" d="M106,290.6c-0.2,0-0.4-0.2-0.4-0.4l0,0c0-0.1,0-0.2,0.1-0.3c0.1-0.1,0.2-0.1,0.3-0.1c0.1,0,0.2,0,0.3,0.1
	c0.1,0.1,0.1,0.2,0.1,0.3c0,0.1-0.1,0.2-0.1,0.3C106.2,290.5,106.1,290.6,106,290.6z M105.7,298.1v-6h0.5v6H105.7z"/>
<path class="st10" d="M112.3,298.1v-3.5c0-1.4-0.5-2.2-1.6-2.2c-0.5,0-1.1,0.2-1.4,0.6c-0.4,0.4-0.6,1-0.6,1.6v3.4h-0.5v-6h0.5v1.1
	l0,0c0.4-0.8,1.1-1.3,2-1.2c0.6,0,1.1,0.2,1.5,0.6c0.4,0.5,0.6,1.2,0.5,1.9v3.6L112.3,298.1z"/>
<path class="st10" d="M114.9,290.6c-0.1,0-0.2,0-0.3-0.1c-0.1-0.1-0.1-0.2-0.1-0.3c0-0.1,0-0.2,0.1-0.3c0.1-0.1,0.2-0.1,0.3-0.1
	c0.1,0,0.2,0,0.3,0.1c0.1,0.1,0.1,0.2,0.1,0.3c0,0.1,0,0.2-0.1,0.3C115.1,290.5,115,290.6,114.9,290.6z M114.6,298.1v-6h0.5v6H114.6
	z"/>
<path class="st10" d="M121,297.8c-0.5,0.3-1,0.4-1.6,0.4c-0.8,0-1.5-0.3-2-0.8c-0.5-0.6-0.8-1.4-0.8-2.2c0-0.9,0.3-1.7,0.8-2.3
	c0.6-0.6,1.3-0.9,2.2-0.9c0.5,0,0.9,0.1,1.3,0.3v0.6c-0.4-0.3-0.9-0.4-1.4-0.4c-0.7,0-1.3,0.3-1.7,0.8c-0.5,0.6-0.7,1.3-0.7,2
	s0.2,1.3,0.6,1.9c0.4,0.5,1,0.7,1.6,0.7s1.1-0.2,1.6-0.5L121,297.8z"/>
<path class="st10" d="M122.7,290.6c-0.2,0-0.4-0.2-0.4-0.4l0,0c0-0.1,0-0.2,0.1-0.3c0.1-0.1,0.2-0.1,0.3-0.1c0.1,0,0.2,0,0.3,0.1
	c0.1,0.1,0.1,0.2,0.1,0.3c0,0.1-0.1,0.2-0.1,0.3C122.9,290.5,122.8,290.6,122.7,290.6z M122.4,298.1v-6h0.6v6H122.4z"/>
<path class="st10" d="M127.3,298.2c-0.8,0-1.6-0.3-2.1-0.9c-1-1.4-1-3.2,0-4.6c0.5-0.6,1.3-0.9,2.1-0.8c0.8,0,1.5,0.3,2,0.8
	c0.5,0.7,0.8,1.5,0.7,2.3c0,0.8-0.2,1.6-0.8,2.3C128.8,297.9,128.1,298.3,127.3,298.2z M127.3,292.4c-0.6,0-1.3,0.2-1.7,0.7
	c-0.5,0.6-0.7,1.3-0.6,2c0,0.7,0.2,1.4,0.6,1.9s1,0.7,1.7,0.7c0.6,0,1.3-0.2,1.7-0.7c0.8-1.2,0.8-2.7,0-3.9
	C128.5,292.7,127.9,292.4,127.3,292.4L127.3,292.4z"/>
<path class="st10" d="M139.2,298.1V297l0,0c-0.2,0.4-0.5,0.7-0.9,0.9c-0.4,0.2-0.8,0.3-1.3,0.3c-0.7,0-1.4-0.3-1.8-0.8
	c-0.5-0.6-0.8-1.4-0.7-2.2c0-0.9,0.2-1.7,0.8-2.4c0.5-0.6,1.2-0.9,2-0.9c0.8-0.1,1.6,0.4,1.9,1.1l0,0v-3.8h0.5v8.9H139.2z
	 M139.2,294.5c0-0.5-0.2-1-0.5-1.4c-0.4-0.4-0.9-0.6-1.4-0.6c-0.6,0-1.2,0.3-1.6,0.7c-0.8,1.2-0.8,2.7-0.1,3.9
	c0.3,0.4,0.9,0.7,1.4,0.7c0.6,0,1.2-0.2,1.6-0.6c0.4-0.4,0.6-1,0.6-1.5V294.5z"/>
<path class="st10" d="M141.8,295.1c0,0.7,0.2,1.4,0.6,1.9c0.4,0.5,1,0.7,1.6,0.7c0.7,0,1.4-0.3,2-0.7v0.6c-0.6,0.4-1.3,0.7-2.1,0.7
	c-0.7,0-1.4-0.3-1.9-0.8c-0.5-0.7-0.8-1.5-0.7-2.3c0-0.8,0.2-1.6,0.7-2.2s1.2-0.9,1.9-0.9s1.3,0.3,1.7,0.8c0.4,0.6,0.6,1.4,0.6,2.1
	v0.2h-4.4L141.8,295.1L141.8,295.1z M145.6,294.6c0-0.6-0.2-1.1-0.5-1.6c-0.3-0.4-0.8-0.6-1.3-0.6s-1,0.2-1.4,0.6
	c-0.4,0.5-0.6,1-0.7,1.6H145.6z"/>
<path class="st10" d="M150.6,297.8v-0.7c0.2,0.2,0.5,0.3,0.7,0.4s0.5,0.1,0.8,0.1c0.9,0,1.4-0.4,1.4-1.1c0-0.3-0.1-0.5-0.3-0.7
	c-0.3-0.2-0.6-0.4-1-0.6c-0.5-0.2-0.9-0.4-1.2-0.8c-0.2-0.3-0.4-0.6-0.4-1c0-0.5,0.2-0.9,0.6-1.2c0.4-0.3,0.9-0.5,1.4-0.4
	c0.5,0,0.9,0.1,1.3,0.3v0.6c-0.4-0.3-0.9-0.4-1.4-0.4c-0.4,0-0.7,0.1-1,0.3c-0.2,0.2-0.4,0.5-0.4,0.8s0.1,0.5,0.2,0.7
	c0.3,0.3,0.6,0.5,1,0.6c0.5,0.2,0.9,0.5,1.3,0.8c0.3,0.3,0.4,0.6,0.4,1c0,0.5-0.2,0.9-0.5,1.2c-0.4,0.3-0.9,0.5-1.5,0.5
	C151.6,298.3,151.1,298.1,150.6,297.8z"/>
<path class="st10" d="M155.8,295.1c0,0.7,0.2,1.4,0.6,1.9c0.4,0.5,1,0.7,1.6,0.7c0.7,0,1.4-0.3,2-0.7v0.6c-0.6,0.4-1.3,0.7-2.1,0.7
	c-0.7,0-1.4-0.3-1.9-0.8c-0.5-0.7-0.8-1.5-0.7-2.3c0-0.8,0.2-1.6,0.8-2.2c0.5-0.6,1.2-0.9,1.9-0.9s1.3,0.3,1.7,0.8
	c0.4,0.6,0.6,1.4,0.6,2.1v0.2h-4.5L155.8,295.1L155.8,295.1z M159.6,294.6c0-0.6-0.2-1.1-0.5-1.6c-0.3-0.4-0.8-0.6-1.3-0.6
	s-1,0.2-1.4,0.6s-0.6,1-0.7,1.6H159.6z"/>
<path class="st10" d="M161.4,297.8v-0.7c0.2,0.2,0.5,0.3,0.7,0.4s0.5,0.1,0.8,0.1c0.9,0,1.4-0.4,1.4-1.1c0-0.3-0.1-0.5-0.3-0.7
	c-0.3-0.2-0.6-0.4-1-0.6c-0.5-0.2-0.9-0.4-1.2-0.8c-0.5-0.7-0.4-1.6,0.2-2.2l0,0c0.4-0.3,0.9-0.5,1.4-0.5s0.9,0.1,1.3,0.3v0.6
	c-0.4-0.3-0.9-0.4-1.4-0.4c-0.4,0-0.7,0.1-1,0.3c-0.2,0.2-0.4,0.5-0.4,0.8s0.1,0.5,0.2,0.7c0.3,0.3,0.6,0.5,1,0.6
	c0.5,0.2,0.9,0.4,1.3,0.8c0.3,0.3,0.4,0.6,0.4,1c0,0.5-0.2,0.9-0.5,1.2c-0.4,0.3-0.9,0.5-1.5,0.5
	C162.3,298.3,161.8,298.1,161.4,297.8z"/>
<path class="st10" d="M166.6,290.6c-0.1,0-0.2,0-0.3-0.1s-0.1-0.2-0.1-0.3c0-0.1,0-0.2,0.1-0.3c0.1-0.1,0.2-0.1,0.3-0.1
	s0.2,0,0.3,0.1s0.1,0.2,0.1,0.3c0,0.1,0,0.2-0.1,0.3C166.8,290.5,166.7,290.6,166.6,290.6z M166.3,298.1v-6h0.5v6H166.3z"/>
<path class="st10" d="M171.2,298.2c-0.8,0-1.6-0.3-2.1-0.9c-1-1.4-1-3.2,0-4.6c0.5-0.6,1.3-0.9,2.1-0.8c0.8,0,1.5,0.3,2,0.8
	c1,1.4,1,3.2,0,4.6C172.7,297.9,172,298.3,171.2,298.2z M171.2,292.4c-0.6,0-1.3,0.2-1.7,0.7c-0.5,0.6-0.7,1.3-0.6,2
	c0,0.7,0.2,1.4,0.6,1.9c0.4,0.5,1,0.7,1.7,0.7c0.6,0,1.3-0.2,1.7-0.7c0.4-0.6,0.6-1.3,0.6-2c0.1-0.7-0.1-1.4-0.6-2
	C172.4,292.6,171.9,292.4,171.2,292.4L171.2,292.4z M171,291.1h-0.5l1.4-1.9h0.6L171,291.1z"/>
<path class="st10" d="M179.6,298.1v-3.5c0-1.4-0.5-2.2-1.6-2.2c-0.5,0-1.1,0.2-1.4,0.6c-0.4,0.4-0.6,1-0.6,1.6v3.4h-0.5v-6h0.5v1.1
	l0,0c0.4-0.8,1.2-1.3,2.1-1.2c0.6,0,1.1,0.2,1.5,0.6c0.4,0.5,0.6,1.2,0.5,1.9v3.6L179.6,298.1z"/>
<ellipse class="st11" cx="254" cy="263.3" rx="5.3" ry="5.3"/>
<path class="st12" d="M253.6,264.6c0-0.1,0-0.2-0.1-0.3c0-0.1,0-0.2,0-0.3c0-0.1,0-0.2,0.1-0.4c0-0.1,0.1-0.2,0.2-0.3
	c0-0.1,0.1-0.2,0.2-0.3l0.3-0.3l0.2-0.2c0.1-0.1,0.1-0.2,0.2-0.2c0-0.1,0.1-0.2,0.1-0.3c0-0.1,0-0.2,0.1-0.3c0-0.1,0-0.2-0.1-0.4
	c0-0.1-0.1-0.2-0.2-0.3c-0.1-0.1-0.2-0.1-0.3-0.2c-0.1,0-0.3,0-0.4,0c-0.2,0-0.4,0-0.6,0.1c-0.2,0.1-0.4,0.2-0.6,0.4v-0.6
	c0.2-0.1,0.4-0.2,0.6-0.3c0.2-0.1,0.4-0.1,0.6-0.1c0.2,0,0.4,0,0.6,0.1c0.2,0,0.3,0.1,0.4,0.2c0.1,0.1,0.2,0.2,0.3,0.4
	c0.1,0.2,0.1,0.3,0.1,0.5c0,0.1,0,0.3-0.1,0.4c0,0.1-0.1,0.2-0.2,0.3c-0.1,0.1-0.1,0.2-0.2,0.3l-0.2,0.3l-0.3,0.3l-0.2,0.2
	c-0.1,0.1-0.1,0.2-0.1,0.2c0,0.1,0,0.2-0.1,0.3c0,0.1,0,0.2,0,0.3c0,0.1,0,0.2,0.1,0.2L253.6,264.6z M253.9,266.2h-0.1
	c0,0-0.1,0-0.1-0.1l-0.1-0.1v-0.1v-0.1c0,0,0-0.1,0.1-0.1l0.1-0.1h0.1h0.1l0.1,0.1l0.1,0.1c0,0.1,0,0.2,0,0.3l-0.1,0.1l-0.1,0.1
	L253.9,266.2L253.9,266.2z"/>
</svg>
